<?xml version="1.0" encoding="UTF-8" standalone="no"?>
<svg
   width="108"
   height="108"
   viewBox="0 0 108 108"
   version="1.1"
   id="svg6"
   sodipodi:docname="icon.svg"
   inkscape:version="1.2.2 (1:1.2.2+202212051550+b0a8486541)"
   inkscape:export-filename="icon.png"
   inkscape:export-xdpi="444.44"
   inkscape:export-ydpi="444.44"
   xml:space="preserve"
   xmlns:inkscape="http://www.inkscape.org/namespaces/inkscape"
   xmlns:sodipodi="http://sodipodi.sourceforge.net/DTD/sodipodi-0.dtd"
   xmlns="http://www.w3.org/2000/svg"
   xmlns:svg="http://www.w3.org/2000/svg"
   xmlns:rdf="http://www.w3.org/1999/02/22-rdf-syntax-ns#"
   xmlns:cc="http://creativecommons.org/ns#"
   xmlns:dc="http://purl.org/dc/elements/1.1/"><metadata
     id="metadata12"><rdf:RDF><cc:Work
         rdf:about=""><dc:format>image/svg+xml</dc:format><dc:type
           rdf:resource="http://purl.org/dc/dcmitype/StillImage" /><dc:title /></cc:Work></rdf:RDF></metadata><defs
     id="defs10" /><sodipodi:namedview
     pagecolor="#ffffff"
     bordercolor="#666666"
     borderopacity="1"
     objecttolerance="10"
     gridtolerance="10"
     guidetolerance="10"
     inkscape:pageopacity="0"
     inkscape:pageshadow="2"
     inkscape:window-width="1920"
     inkscape:window-height="1029"
     id="namedview8"
     showgrid="false"
     inkscape:zoom="2.1851852"
     inkscape:cx="16.70339"
     inkscape:cy="63.381356"
     inkscape:window-x="0"
     inkscape:window-y="0"
     inkscape:window-maximized="1"
     inkscape:current-layer="svg6"
     inkscape:showpageshadow="2"
     inkscape:pagecheckerboard="0"
     inkscape:deskcolor="#d1d1d1" /><rect
     style="display:inline;opacity:1;vector-effect:none;fill:#41c300;fill-opacity:1;stroke:none;stroke-width:10;stroke-linecap:square;stroke-linejoin:miter;stroke-miterlimit:4;stroke-dasharray:none;stroke-dashoffset:0;stroke-opacity:1;paint-order:stroke fill markers"
     id="rect822"
     width="99.989693"
     height="99.989693"
     x="4.0051537"
     y="4.0051537"
     ry="14.420368" /><path
     d="m 54.000001,78.808619 q -5.147788,0 -9.675361,-1.953679 Q 39.797067,74.901262 36.447903,71.552098 33.09874,68.202934 31.145061,63.675361 29.191382,59.147788 29.191382,54 q 0,-5.14779 1.953679,-9.675362 1.953679,-4.527573 5.302842,-7.876737 3.349164,-3.349162 7.876737,-5.302841 4.527573,-1.95368 9.675361,-1.95368 5.147786,0 9.675365,1.95368 4.527571,1.953679 7.876736,5.302841 3.349157,3.349165 5.302837,7.876737 1.953679,4.527572 1.953679,9.675362 0,5.147789 -1.953679,9.675361 -1.95368,4.527573 -5.302837,7.876737 -3.349165,3.349164 -7.876736,5.302842 -4.527579,1.953679 -9.675365,1.953679 z M 51.51914,73.722852 v -4.837681 q -2.046711,0 -3.504218,-1.457507 -1.457507,-1.457505 -1.457507,-3.504217 V 61.442586 L 34.649279,49.534448 q -0.186065,1.116387 -0.341119,2.232776 -0.155055,1.116387 -0.155055,2.232775 0,7.504608 4.930714,13.148568 4.930713,5.643962 12.435321,6.574285 z m 17.117949,-6.326198 q 1.240431,-1.364474 2.232777,-2.946024 0.992337,-1.581549 1.64357,-3.287142 0.651223,-1.705592 0.992346,-3.504217 0.341114,-1.798625 0.341114,-3.659272 0,-6.078111 -3.380169,-11.101857 -3.380179,-5.023745 -9.024138,-7.256521 v 0.992345 q 0,2.046711 -1.457511,3.504217 -1.457502,1.457507 -3.504215,1.457507 H 51.51914 v 4.961723 q 0,1.054367 -0.713248,1.767615 -0.713248,0.713248 -1.767614,0.713248 h -4.961725 v 4.961723 h 14.885175 q 1.054363,0 1.767612,0.713248 0.713249,0.713248 0.713249,1.767614 v 7.442586 h 2.480862 q 1.612557,0 2.915013,0.961334 1.302447,0.961335 1.798625,2.511873 z"
     id="path113"
     style="opacity:1;fill:#ffffff;fill-opacity:1;stroke-width:0.0620215" /></svg>
